<?xml version="1.0" encoding="UTF-8"?>
<svg version="1.1" xmlns="http://www.w3.org/2000/svg" width="512" height="512">
<path d="M0 0 C1.73576727 1.29621897 3.48741556 2.56811338 5.24365234 3.83642578 C6.35478373 4.64700131 7.46547996 5.45817378 8.57568359 6.27001953 C10.05681641 7.35283203 10.05681641 7.35283203 11.56787109 8.45751953 C12.27169922 9.05564453 12.97552734 9.65376953 13.70068359 10.27001953 C13.70068359 10.93001953 13.70068359 11.59001953 13.70068359 12.27001953 C14.23306641 12.47755859 14.76544922 12.68509766 15.31396484 12.89892578 C18.66641423 14.82480096 21.19821522 17.47235152 23.88818359 20.20751953 C24.46407227 20.78945068 25.03996094 21.37138184 25.63330078 21.97094727 C30.67893865 27.13266576 35.28965077 32.55535433 39.70068359 38.27001953 C40.41482422 39.17880859 41.12896484 40.08759766 41.86474609 41.02392578 C71.36600193 79.33386048 89.3216751 127.10092615 93.70068359 175.27001953 C93.78535889 176.1783252 93.87003418 177.08663086 93.95727539 178.02246094 C94.69674388 186.60818308 94.90436718 195.15534153 94.88818359 203.77001953 C94.88628021 204.82248367 94.88628021 204.82248367 94.88433838 205.89620972 C94.75988011 242.20973892 87.64033187 278.66461597 73.70068359 312.27001953 C73.40581055 312.98319336 73.1109375 313.69636719 72.80712891 314.43115234 C60.06574848 344.89163385 40.69003888 374.37588494 15.70068359 396.27001953 C15.04068359 396.27001953 14.38068359 396.27001953 13.70068359 396.27001953 C13.70068359 396.93001953 13.70068359 397.59001953 13.70068359 398.27001953 C11.98828125 399.78222656 11.98828125 399.78222656 9.61474609 401.52783203 C8.76654297 402.15302734 7.91833984 402.77822266 7.04443359 403.42236328 C6.14724609 404.07333984 5.25005859 404.72431641 4.32568359 405.39501953 C3.43623047 406.05373047 2.54677734 406.71244141 1.63037109 407.39111328 C-5.03645732 412.27001953 -5.03645732 412.27001953 -7.29931641 412.27001953 C-7.29931641 412.93001953 -7.29931641 413.59001953 -7.29931641 414.27001953 C-47.58589269 437.44412649 -92.5461361 449.70983328 -138.77001953 437.62402344 C-144.66610782 436.00025234 -150.49157947 434.18384596 -156.29931641 432.27001953 C-157.46205078 431.89103516 -158.62478516 431.51205078 -159.82275391 431.12158203 C-173.98407017 426.09199615 -187.042243 417.85570746 -199.29931641 409.27001953 C-200.43046875 408.51011719 -200.43046875 408.51011719 -201.58447266 407.73486328 C-203.19583991 406.63605818 -204.75603128 405.46255804 -206.29931641 404.27001953 C-206.29931641 403.61001953 -206.29931641 402.95001953 -206.29931641 402.27001953 C-206.87166016 402.00189453 -207.44400391 401.73376953 -208.03369141 401.45751953 C-210.37816275 400.22869317 -212.42336578 398.84479777 -214.54931641 397.27001953 C-215.25572266 396.75439453 -215.96212891 396.23876953 -216.68994141 395.70751953 C-217.48658203 394.99595703 -217.48658203 394.99595703 -218.29931641 394.27001953 C-218.29931641 393.61001953 -218.29931641 392.95001953 -218.29931641 392.27001953 C-219.28931641 391.94001953 -220.27931641 391.61001953 -221.29931641 391.27001953 C-221.29931641 390.61001953 -221.29931641 389.95001953 -221.29931641 389.27001953 C-222.28931641 388.94001953 -223.27931641 388.61001953 -224.29931641 388.27001953 C-225.77197266 386.84423828 -225.77197266 386.84423828 -227.36181641 384.95751953 C-228.28800781 383.86117187 -228.28800781 383.86117187 -229.23291016 382.74267578 C-229.91482422 381.92669922 -230.59673828 381.11072266 -231.29931641 380.27001953 C-232.03279297 379.42310547 -232.76626953 378.57619141 -233.52197266 377.70361328 C-268.36730031 336.96574241 -285.92136912 288.8280779 -292.91381836 236.14648438 C-293.18926303 234.09120313 -293.49923918 232.04043035 -293.83203125 229.99365234 C-294.37891054 225.63576161 -294.49777051 221.36837743 -294.53759766 216.98095703 C-294.54734619 216.09257645 -294.55709473 215.20419586 -294.56713867 214.28889465 C-294.74736985 193.56535078 -294.20860322 173.68057817 -290.29931641 153.27001953 C-290.11208008 152.25794434 -289.92484375 151.24586914 -289.73193359 150.203125 C-282.37775804 111.19043034 -267.57878924 74.78997801 -243.29931641 43.27001953 C-242.70119141 42.48755859 -242.10306641 41.70509766 -241.48681641 40.89892578 C-228.33046358 23.81393982 -228.33046358 23.81393982 -223.29931641 19.27001953 C-222.63931641 19.27001953 -221.97931641 19.27001953 -221.29931641 19.27001953 C-220.96931641 18.28001953 -220.63931641 17.29001953 -220.29931641 16.27001953 C-219.63931641 16.27001953 -218.97931641 16.27001953 -218.29931641 16.27001953 C-218.29931641 15.61001953 -218.29931641 14.95001953 -218.29931641 14.27001953 C-216.18212891 12.32470703 -216.18212891 12.32470703 -213.42431641 10.14501953 C-212.51939453 9.42056641 -211.61447266 8.69611328 -210.68212891 7.94970703 C-208.29931641 6.27001953 -208.29931641 6.27001953 -206.29931641 6.27001953 C-206.29931641 5.61001953 -206.29931641 4.95001953 -206.29931641 4.27001953 C-204.02270231 2.50510739 -201.74877786 0.87465085 -199.36181641 -0.72998047 C-198.64034424 -1.21764893 -197.91887207 -1.70531738 -197.17553711 -2.20776367 C-136.52526114 -42.76144976 -59.46560815 -44.6207329 0 0 Z " fill="#440E92" transform="translate(357.29931640625,51.72998046875)"/>
<path d="M0 0 C1.73576727 1.29621897 3.48741556 2.56811338 5.24365234 3.83642578 C6.35478373 4.64700131 7.46547996 5.45817378 8.57568359 6.27001953 C10.05681641 7.35283203 10.05681641 7.35283203 11.56787109 8.45751953 C12.27169922 9.05564453 12.97552734 9.65376953 13.70068359 10.27001953 C13.70068359 10.93001953 13.70068359 11.59001953 13.70068359 12.27001953 C14.23306641 12.47755859 14.76544922 12.68509766 15.31396484 12.89892578 C18.66641423 14.82480096 21.19821522 17.47235152 23.88818359 20.20751953 C24.46407227 20.78945068 25.03996094 21.37138184 25.63330078 21.97094727 C30.67893865 27.13266576 35.28965077 32.55535433 39.70068359 38.27001953 C40.41482422 39.17880859 41.12896484 40.08759766 41.86474609 41.02392578 C71.36600193 79.33386048 89.3216751 127.10092615 93.70068359 175.27001953 C93.78535889 176.1783252 93.87003418 177.08663086 93.95727539 178.02246094 C94.69674388 186.60818308 94.90436718 195.15534153 94.88818359 203.77001953 C94.88628021 204.82248367 94.88628021 204.82248367 94.88433838 205.89620972 C94.75988011 242.20973892 87.64033187 278.66461597 73.70068359 312.27001953 C73.40581055 312.98319336 73.1109375 313.69636719 72.80712891 314.43115234 C60.06574848 344.89163385 40.69003888 374.37588494 15.70068359 396.27001953 C15.04068359 396.27001953 14.38068359 396.27001953 13.70068359 396.27001953 C13.70068359 396.93001953 13.70068359 397.59001953 13.70068359 398.27001953 C11.98828125 399.78222656 11.98828125 399.78222656 9.61474609 401.52783203 C8.76654297 402.15302734 7.91833984 402.77822266 7.04443359 403.42236328 C6.14724609 404.07333984 5.25005859 404.72431641 4.32568359 405.39501953 C3.43623047 406.05373047 2.54677734 406.71244141 1.63037109 407.39111328 C-5.03645732 412.27001953 -5.03645732 412.27001953 -7.29931641 412.27001953 C-7.29931641 412.93001953 -7.29931641 413.59001953 -7.29931641 414.27001953 C-47.58589269 437.44412649 -92.5461361 449.70983328 -138.77001953 437.62402344 C-144.66610782 436.00025234 -150.49157947 434.18384596 -156.29931641 432.27001953 C-157.46205078 431.89103516 -158.62478516 431.51205078 -159.82275391 431.12158203 C-173.98407017 426.09199615 -187.042243 417.85570746 -199.29931641 409.27001953 C-200.43046875 408.51011719 -200.43046875 408.51011719 -201.58447266 407.73486328 C-203.19583991 406.63605818 -204.75603128 405.46255804 -206.29931641 404.27001953 C-206.29931641 403.61001953 -206.29931641 402.95001953 -206.29931641 402.27001953 C-206.87166016 402.00189453 -207.44400391 401.73376953 -208.03369141 401.45751953 C-210.37816275 400.22869317 -212.42336578 398.84479777 -214.54931641 397.27001953 C-215.25572266 396.75439453 -215.96212891 396.23876953 -216.68994141 395.70751953 C-217.48658203 394.99595703 -217.48658203 394.99595703 -218.29931641 394.27001953 C-218.29931641 393.61001953 -218.29931641 392.95001953 -218.29931641 392.27001953 C-219.28931641 391.94001953 -220.27931641 391.61001953 -221.29931641 391.27001953 C-221.29931641 390.61001953 -221.29931641 389.95001953 -221.29931641 389.27001953 C-222.28931641 388.94001953 -223.27931641 388.61001953 -224.29931641 388.27001953 C-225.77197266 386.84423828 -225.77197266 386.84423828 -227.36181641 384.95751953 C-228.28800781 383.86117187 -228.28800781 383.86117187 -229.23291016 382.74267578 C-229.91482422 381.92669922 -230.59673828 381.11072266 -231.29931641 380.27001953 C-232.03279297 379.42310547 -232.76626953 378.57619141 -233.52197266 377.70361328 C-268.36730031 336.96574241 -285.92136912 288.8280779 -292.91381836 236.14648438 C-293.18926303 234.09120313 -293.49923918 232.04043035 -293.83203125 229.99365234 C-294.37891054 225.63576161 -294.49777051 221.36837743 -294.53759766 216.98095703 C-294.54734619 216.09257645 -294.55709473 215.20419586 -294.56713867 214.28889465 C-294.74736985 193.56535078 -294.20860322 173.68057817 -290.29931641 153.27001953 C-290.11208008 152.25794434 -289.92484375 151.24586914 -289.73193359 150.203125 C-282.37775804 111.19043034 -267.57878924 74.78997801 -243.29931641 43.27001953 C-242.70119141 42.48755859 -242.10306641 41.70509766 -241.48681641 40.89892578 C-228.33046358 23.81393982 -228.33046358 23.81393982 -223.29931641 19.27001953 C-222.63931641 19.27001953 -221.97931641 19.27001953 -221.29931641 19.27001953 C-220.96931641 18.28001953 -220.63931641 17.29001953 -220.29931641 16.27001953 C-219.63931641 16.27001953 -218.97931641 16.27001953 -218.29931641 16.27001953 C-218.29931641 15.61001953 -218.29931641 14.95001953 -218.29931641 14.27001953 C-216.18212891 12.32470703 -216.18212891 12.32470703 -213.42431641 10.14501953 C-212.51939453 9.42056641 -211.61447266 8.69611328 -210.68212891 7.94970703 C-208.29931641 6.27001953 -208.29931641 6.27001953 -206.29931641 6.27001953 C-206.29931641 5.61001953 -206.29931641 4.95001953 -206.29931641 4.27001953 C-204.02270231 2.50510739 -201.74877786 0.87465085 -199.36181641 -0.72998047 C-198.64034424 -1.21764893 -197.91887207 -1.70531738 -197.17553711 -2.20776367 C-136.52526114 -42.76144976 -59.46560815 -44.6207329 0 0 Z M-137.11181641 15.95751953 C-137.96855957 16.21807129 -138.82530273 16.47862305 -139.70800781 16.74707031 C-147.62321063 19.23689824 -154.95620418 22.42712413 -162.29931641 26.27001953 C-162.8890625 26.57665527 -163.47880859 26.88329102 -164.08642578 27.19921875 C-177.22416748 34.10835281 -188.53297129 43.06762583 -199.29931641 53.27001953 C-200.64123047 54.53265625 -200.64123047 54.53265625 -202.01025391 55.82080078 C-217.96235939 71.25904293 -230.0489023 90.17789052 -239.29931641 110.27001953 C-239.83169922 111.41857422 -240.36408203 112.56712891 -240.91259766 113.75048828 C-264.99582279 167.82884137 -265.22681201 230.77654729 -244.61767578 285.91796875 C-234.73321129 311.05013496 -220.67411779 332.56691925 -202.29931641 352.27001953 C-201.60193359 353.02154297 -200.90455078 353.77306641 -200.18603516 354.54736328 C-181.4029963 374.08584429 -156.45875601 387.74596403 -130.29931641 394.27001953 C-129.12111328 394.58970703 -127.94291016 394.90939453 -126.72900391 395.23876953 C-92.73984789 403.16712558 -55.63014957 395.09638436 -26.21582031 376.98730469 C-17.56141249 371.44872336 -9.76912939 365.33459853 -2.29931641 358.27001953 C-0.94941795 357.11916092 0.40458981 355.97310022 1.76318359 354.83251953 C37.89180233 323.0220624 56.70135819 271.19657524 60.70068359 224.27001953 C60.84521992 221.23300935 60.88673693 218.2008065 60.90380859 215.16064453 C60.91439804 213.89972992 60.91439804 213.89972992 60.92520142 212.61334229 C61.185561 187.28642445 61.185561 187.28642445 57.70068359 162.27001953 C57.50200684 161.30854004 57.30333008 160.34706055 57.09863281 159.35644531 C52.66404655 138.17340665 45.92877234 118.34518925 35.70068359 99.27001953 C35.23404297 98.33673828 34.76740234 97.40345703 34.28662109 96.44189453 C27.66113409 83.50088482 18.65187143 71.80201599 8.70068359 61.27001953 C7.55004333 59.91993495 6.404014 58.56590364 5.26318359 57.20751953 C-5.61824717 44.81409042 -19.58153185 34.61807397 -34.29931641 27.27001953 C-35.20552734 26.78146484 -36.11173828 26.29291016 -37.04541016 25.78955078 C-56.13571215 15.7133941 -76.04596742 11.08214136 -97.5637207 11.0847168 C-99.5975453 11.08253484 -101.63082188 11.06432971 -103.66455078 11.04541016 C-115.3127103 11.02833909 -125.98544823 12.5629961 -137.11181641 15.95751953 Z " fill="#6760B8" transform="translate(357.29931640625,51.72998046875)"/>
<path d="M0 0 C1.14564423 -0.00960754 2.29128845 -0.01921509 3.47164917 -0.02911377 C5.34797531 -0.03548859 5.34797531 -0.03548859 7.26220703 -0.04199219 C8.54427032 -0.04769226 9.82633362 -0.05339233 11.14724731 -0.05926514 C13.87274573 -0.06979394 16.59821456 -0.07562192 19.32373047 -0.07910156 C22.78781338 -0.08454111 26.25149415 -0.10846164 29.71545219 -0.13707352 C33.04352784 -0.16040444 36.371554 -0.16216558 39.69970703 -0.16699219 C40.93034882 -0.17933899 42.1609906 -0.19168579 43.42892456 -0.20440674 C56.25587968 -0.17170535 67.15105993 2.45667317 76.81689453 11.20019531 C79.59702816 14.18230446 81.21440711 17.37213456 82.64501953 21.16113281 C83.18449219 22.43923828 83.18449219 22.43923828 83.73486328 23.74316406 C84.990811 28.45970591 84.89625344 32.92893834 84.83251953 37.78613281 C84.83155273 39.19765625 84.83155273 39.19765625 84.83056641 40.63769531 C84.80486665 44.65827919 84.76262851 48.27597841 83.64501953 52.16113281 C82.98501953 52.16113281 82.32501953 52.16113281 81.64501953 52.16113281 C81.60376953 52.96550781 81.56251953 53.76988281 81.52001953 54.59863281 C79.80679182 61.57391706 75.04111279 67.51449695 69.64501953 72.16113281 C68.98501953 72.16113281 68.32501953 72.16113281 67.64501953 72.16113281 C67.64501953 72.82113281 67.64501953 73.48113281 67.64501953 74.16113281 C66.71689453 74.53238281 66.71689453 74.53238281 65.77001953 74.91113281 C63.29433266 76.36741921 62.69376951 77.53925787 61.64501953 80.16113281 C62.24314453 80.42796875 62.84126953 80.69480469 63.45751953 80.96972656 C70.5087237 84.81011455 73.82080155 92.65223612 76.23486328 99.94238281 C78.3364218 111.31081366 77.6610354 128.06448603 71.64501953 138.16113281 C70.3116862 139.49446615 68.97835286 140.82779948 67.64501953 142.16113281 C66.67389425 143.4641964 65.71671789 144.77771599 64.77001953 146.09863281 C59.68517956 152.92068744 54.66756429 155.91277632 46.64501953 158.16113281 C44.81085641 158.699983 42.97750996 159.24162137 41.14501953 159.78613281 C40.30970703 160.02589844 39.47439453 160.26566406 38.61376953 160.51269531 C36.66542799 160.99058805 36.66542799 160.99058805 35.64501953 162.16113281 C33.50879216 162.27983403 31.36865748 162.32857186 29.22924805 162.35058594 C28.22435333 162.36302589 28.22435333 162.36302589 27.19915771 162.37571716 C25.74009664 162.39315257 24.28100701 162.40830976 22.82190132 162.42149353 C20.51505724 162.44246343 18.20835634 162.46949105 15.90159607 162.49816895 C11.00362517 162.55796243 6.10558815 162.61006392 1.20751953 162.66113281 C-4.46292171 162.72030095 -10.13329262 162.78257554 -15.80360603 162.85301208 C-18.08034657 162.87964039 -20.35709392 162.90042406 -22.63389587 162.92102051 C-24.02587217 162.9376213 -25.41784527 162.95449295 -26.80981445 162.97167969 C-28.02813461 162.98420776 -29.24645477 162.99673584 -30.50169373 163.00964355 C-33.30119237 162.96792057 -33.30119237 162.96792057 -35.35498047 164.16113281 C-34.71948747 155.71859782 -33.23798608 147.47185227 -31.68701172 139.15722656 C-31.4181112 137.69915252 -31.14954858 136.24101613 -30.88130188 134.78282166 C-30.18231849 130.9894054 -29.47825209 127.196953 -28.77240753 123.40480804 C-28.36856675 121.23415922 -27.96576748 119.06332026 -27.56341553 116.89239502 C-26.00075084 108.46120735 -24.43115829 100.03132176 -22.85900879 91.60189819 C-17.63187795 63.58590293 -17.63187795 63.58590293 -12.54638672 35.54394531 C-12.33451218 34.35882858 -12.12263763 33.17371185 -11.90434265 31.9526825 C-10.92386189 26.4602395 -9.94937864 20.96680639 -8.98266602 15.47192383 C-8.64327993 13.55972406 -8.30384626 11.64753274 -7.96435547 9.73535156 C-7.81394302 8.86915192 -7.66353058 8.00295227 -7.50856018 7.11050415 C-6.24839962 0.04212781 -6.24839962 0.04212781 0 0 Z " fill="#FDFDFD" transform="translate(233.35498046875,172.8388671875)"/>
<path d="M0 0 C1.73576727 1.29621897 3.48741556 2.56811338 5.24365234 3.83642578 C6.35478373 4.64700131 7.46547996 5.45817378 8.57568359 6.27001953 C10.05681641 7.35283203 10.05681641 7.35283203 11.56787109 8.45751953 C12.27169922 9.05564453 12.97552734 9.65376953 13.70068359 10.27001953 C13.70068359 10.93001953 13.70068359 11.59001953 13.70068359 12.27001953 C14.23306641 12.47755859 14.76544922 12.68509766 15.31396484 12.89892578 C18.66641423 14.82480096 21.19821522 17.47235152 23.88818359 20.20751953 C24.46407227 20.78945068 25.03996094 21.37138184 25.63330078 21.97094727 C30.67893865 27.13266576 35.28965077 32.55535433 39.70068359 38.27001953 C40.41482422 39.17880859 41.12896484 40.08759766 41.86474609 41.02392578 C71.36600193 79.33386048 89.3216751 127.10092615 93.70068359 175.27001953 C93.78535889 176.1783252 93.87003418 177.08663086 93.95727539 178.02246094 C94.69674388 186.60818308 94.90436718 195.15534153 94.88818359 203.77001953 C94.88628021 204.82248367 94.88628021 204.82248367 94.88433838 205.89620972 C94.75988011 242.20973892 87.64033187 278.66461597 73.70068359 312.27001953 C73.40581055 312.98319336 73.1109375 313.69636719 72.80712891 314.43115234 C60.06574848 344.89163385 40.69003888 374.37588494 15.70068359 396.27001953 C15.04068359 396.27001953 14.38068359 396.27001953 13.70068359 396.27001953 C13.70068359 396.93001953 13.70068359 397.59001953 13.70068359 398.27001953 C11.98828125 399.78222656 11.98828125 399.78222656 9.61474609 401.52783203 C8.76654297 402.15302734 7.91833984 402.77822266 7.04443359 403.42236328 C6.14724609 404.07333984 5.25005859 404.72431641 4.32568359 405.39501953 C3.43623047 406.05373047 2.54677734 406.71244141 1.63037109 407.39111328 C-5.03645732 412.27001953 -5.03645732 412.27001953 -7.29931641 412.27001953 C-7.29931641 412.93001953 -7.29931641 413.59001953 -7.29931641 414.27001953 C-47.58589269 437.44412649 -92.5461361 449.70983328 -138.77001953 437.62402344 C-144.66610782 436.00025234 -150.49157947 434.18384596 -156.29931641 432.27001953 C-157.46205078 431.89103516 -158.62478516 431.51205078 -159.82275391 431.12158203 C-173.98407017 426.09199615 -187.042243 417.85570746 -199.29931641 409.27001953 C-200.43046875 408.51011719 -200.43046875 408.51011719 -201.58447266 407.73486328 C-203.19583991 406.63605818 -204.75603128 405.46255804 -206.29931641 404.27001953 C-206.29931641 403.61001953 -206.29931641 402.95001953 -206.29931641 402.27001953 C-206.87166016 402.00189453 -207.44400391 401.73376953 -208.03369141 401.45751953 C-210.37816275 400.22869317 -212.42336578 398.84479777 -214.54931641 397.27001953 C-215.25572266 396.75439453 -215.96212891 396.23876953 -216.68994141 395.70751953 C-217.48658203 394.99595703 -217.48658203 394.99595703 -218.29931641 394.27001953 C-218.29931641 393.61001953 -218.29931641 392.95001953 -218.29931641 392.27001953 C-219.28931641 391.94001953 -220.27931641 391.61001953 -221.29931641 391.27001953 C-221.29931641 390.61001953 -221.29931641 389.95001953 -221.29931641 389.27001953 C-222.28931641 388.94001953 -223.27931641 388.61001953 -224.29931641 388.27001953 C-225.77197266 386.84423828 -225.77197266 386.84423828 -227.36181641 384.95751953 C-228.28800781 383.86117187 -228.28800781 383.86117187 -229.23291016 382.74267578 C-229.91482422 381.92669922 -230.59673828 381.11072266 -231.29931641 380.27001953 C-232.03279297 379.42310547 -232.76626953 378.57619141 -233.52197266 377.70361328 C-268.36730031 336.96574241 -285.92136912 288.8280779 -292.91381836 236.14648438 C-293.18926303 234.09120313 -293.49923918 232.04043035 -293.83203125 229.99365234 C-294.37891054 225.63576161 -294.49777051 221.36837743 -294.53759766 216.98095703 C-294.54734619 216.09257645 -294.55709473 215.20419586 -294.56713867 214.28889465 C-294.74736985 193.56535078 -294.20860322 173.68057817 -290.29931641 153.27001953 C-290.11208008 152.25794434 -289.92484375 151.24586914 -289.73193359 150.203125 C-282.37775804 111.19043034 -267.57878924 74.78997801 -243.29931641 43.27001953 C-242.70119141 42.48755859 -242.10306641 41.70509766 -241.48681641 40.89892578 C-228.33046358 23.81393982 -228.33046358 23.81393982 -223.29931641 19.27001953 C-222.63931641 19.27001953 -221.97931641 19.27001953 -221.29931641 19.27001953 C-220.96931641 18.28001953 -220.63931641 17.29001953 -220.29931641 16.27001953 C-219.63931641 16.27001953 -218.97931641 16.27001953 -218.29931641 16.27001953 C-218.29931641 15.61001953 -218.29931641 14.95001953 -218.29931641 14.27001953 C-216.18212891 12.32470703 -216.18212891 12.32470703 -213.42431641 10.14501953 C-212.51939453 9.42056641 -211.61447266 8.69611328 -210.68212891 7.94970703 C-208.29931641 6.27001953 -208.29931641 6.27001953 -206.29931641 6.27001953 C-206.29931641 5.61001953 -206.29931641 4.95001953 -206.29931641 4.27001953 C-204.02270231 2.50510739 -201.74877786 0.87465085 -199.36181641 -0.72998047 C-198.64034424 -1.21764893 -197.91887207 -1.70531738 -197.17553711 -2.20776367 C-136.52526114 -42.76144976 -59.46560815 -44.6207329 0 0 Z M-177.29931641 -3.72998047 C-178.63008075 -3.05820039 -179.96199525 -2.38861114 -181.29931641 -1.72998047 C-181.29931641 -1.06998047 -181.29931641 -0.40998047 -181.29931641 0.27001953 C-182.30091797 0.34736328 -182.30091797 0.34736328 -183.32275391 0.42626953 C-187.56883827 1.629884 -190.47568545 4.08018583 -193.92431641 6.77001953 C-194.62492187 7.30739746 -195.32552734 7.84477539 -196.04736328 8.3984375 C-198.14026808 10.01119968 -200.22132471 11.63810473 -202.29931641 13.27001953 C-203.1979541 13.97046387 -203.1979541 13.97046387 -204.11474609 14.68505859 C-208.82740116 18.3365312 -208.82740116 18.3365312 -213.29931641 22.27001953 C-213.29931641 22.93001953 -213.29931641 23.59001953 -213.29931641 24.27001953 C-213.95931641 24.27001953 -214.61931641 24.27001953 -215.29931641 24.27001953 C-215.29931641 24.93001953 -215.29931641 25.59001953 -215.29931641 26.27001953 C-215.89744141 26.53814453 -216.49556641 26.80626953 -217.11181641 27.08251953 C-219.29779494 28.26919359 -220.71264234 29.36601066 -222.29931641 31.27001953 C-222.29931641 31.93001953 -222.29931641 32.59001953 -222.29931641 33.27001953 C-222.95931641 33.27001953 -223.61931641 33.27001953 -224.29931641 33.27001953 C-227.06402549 36.24327348 -229.51909972 39.47150598 -232.02734375 42.66259766 C-233.23269228 44.18582505 -234.46261628 45.68951106 -235.69384766 47.19189453 C-264.1493692 82.68084871 -280.35249829 128.40599887 -285.29931641 173.27001953 C-285.4396228 174.3315625 -285.4396228 174.3315625 -285.58276367 175.41455078 C-286.65321195 184.24408689 -286.50001471 193.14007489 -286.48681641 202.02001953 C-286.48554749 202.89261414 -286.48427856 203.76520874 -286.48297119 204.66424561 C-286.29636483 271.92427186 -263.38895166 335.52086537 -215.83203125 383.75830078 C-198.69190206 400.7916904 -178.0878263 414.21787211 -155.29931641 422.27001953 C-153.69278137 422.95196684 -152.08849969 423.63925363 -150.48681641 424.33251953 C-134.66226457 430.67775379 -117.46866737 432.71516051 -100.54931641 432.70751953 C-99.83409821 432.7082547 -99.11888 432.70898987 -98.38198853 432.70974731 C-56.85333263 432.59859572 -15.88501366 414.88016043 13.50927734 385.53173828 C14.57504563 384.446426 15.63905574 383.35938222 16.70068359 382.27001953 C21.70068359 377.27001953 21.70068359 377.27001953 23.25195312 375.77807617 C27.61280138 371.53513927 31.41539353 367.06232029 35.07568359 362.20751953 C35.63876221 361.4636499 36.20184082 360.71978027 36.78198242 359.95336914 C41.78926365 353.26913793 46.41826924 346.43832639 50.70068359 339.27001953 C51.28946289 338.29572998 51.28946289 338.29572998 51.89013672 337.30175781 C71.65591942 304.27786492 81.54455745 267.26555776 85.70068359 229.27001953 C85.83345703 228.14208984 85.96623047 227.01416016 86.10302734 225.85205078 C88.83645459 198.105892 86.40240237 169.28669798 79.70068359 142.27001953 C79.52311523 141.51672363 79.34554688 140.76342773 79.16259766 139.98730469 C76.02966493 126.70445176 71.66173823 113.97564009 66.70068359 101.27001953 C66.27964355 100.18575684 66.27964355 100.18575684 65.85009766 99.07958984 C46.51215061 50.10748159 8.21839045 9.67850373 -39.49462891 -12.19482422 C-49.74384205 -16.38281862 -60.5753254 -19.05439887 -71.29931641 -21.72998047 C-72.37955078 -22.00197266 -73.45978516 -22.27396484 -74.57275391 -22.55419922 C-108.97495924 -29.66667862 -147.01945124 -19.87182036 -177.29931641 -3.72998047 Z " fill="#4A587E" transform="translate(357.29931640625,51.72998046875)"/>
<path d="M0 0 C2.06873997 0.01071255 4.13660854 0.00004277 6.20532227 -0.01269531 C14.68636822 -0.02172086 22.80177715 0.68927697 31.13696289 2.26074219 C31.86085205 2.39174316 32.58474121 2.52274414 33.33056641 2.65771484 C40.162507 3.94201549 46.76721493 5.45653043 53.13696289 8.26074219 C53.92844727 8.5971875 54.71993164 8.93363281 55.53540039 9.28027344 C69.09080097 15.22318366 81.39523348 22.28156077 93.13696289 31.26074219 C94.53688477 32.32228516 94.53688477 32.32228516 95.96508789 33.40527344 C132.03514169 61.8288977 153.97962163 104.24584492 164.38696289 148.32324219 C164.7562793 149.86383301 164.7562793 149.86383301 165.13305664 151.43554688 C168.77125074 167.44058582 169.5468816 183.28073756 169.51196289 199.63574219 C169.51114716 201.08040863 169.51114716 201.08040863 169.51031494 202.55426025 C169.4488772 226.30314314 166.31069958 248.5659583 159.13696289 271.26074219 C158.86480957 272.12280273 158.59265625 272.98486328 158.31225586 273.87304688 C148.42494701 304.62714255 132.37217282 330.92708626 110.13696289 354.26074219 C109.03094727 355.44603516 109.03094727 355.44603516 107.90258789 356.65527344 C83.2103892 382.38382353 46.70606135 399.58629554 11.05883789 400.49902344 C-4.27998577 400.70846243 -19.01891848 400.62961124 -33.86303711 396.26074219 C-34.67595215 396.02468262 -35.48886719 395.78862305 -36.32641602 395.54541016 C-58.91952784 388.76878737 -80.87408543 377.00667831 -97.29760742 359.83935547 C-98.90816858 358.21523064 -100.59726318 356.77589074 -102.36303711 355.32324219 C-138.86795584 324.55669022 -157.81016928 269.11134754 -162.11303711 223.19824219 C-166.75310398 165.25158971 -153.14655083 105.82304856 -115.86303711 60.26074219 C-115.44086914 59.73174316 -115.01870117 59.20274414 -114.58374023 58.65771484 C-99.5163671 39.77818302 -81.24097205 25.38651165 -59.86303711 14.26074219 C-58.82018555 13.70644531 -57.77733398 13.15214844 -56.70288086 12.58105469 C-39.16195389 3.84454138 -19.48042753 -0.11958237 0 0 Z M-34.67553711 11.94824219 C-35.53228027 12.20879395 -36.38902344 12.4693457 -37.27172852 12.73779297 C-45.18693134 15.22762089 -52.51992488 18.41784679 -59.86303711 22.26074219 C-60.4527832 22.56737793 -61.0425293 22.87401367 -61.65014648 23.18994141 C-74.78788819 30.09907547 -86.09669199 39.05834848 -96.86303711 49.26074219 C-98.20495117 50.52337891 -98.20495117 50.52337891 -99.57397461 51.81152344 C-115.5260801 67.24976558 -127.612623 86.16861318 -136.86303711 106.26074219 C-137.39541992 107.40929687 -137.92780273 108.55785156 -138.47631836 109.74121094 C-162.5595435 163.81956402 -162.79053271 226.76726995 -142.18139648 281.90869141 C-132.29693199 307.04085761 -118.23783849 328.55764191 -99.86303711 348.26074219 C-99.1656543 349.01226562 -98.46827148 349.76378906 -97.74975586 350.53808594 C-78.966717 370.07656694 -54.02247672 383.73668668 -27.86303711 390.26074219 C-26.68483398 390.58042969 -25.50663086 390.90011719 -24.29272461 391.22949219 C9.69643141 399.15784823 46.80612972 391.08710702 76.22045898 372.97802734 C84.87486681 367.43944601 92.66714991 361.32532119 100.13696289 354.26074219 C101.48686135 353.10988358 102.84086911 351.96382288 104.19946289 350.82324219 C140.32808163 319.01278505 159.13763749 267.1872979 163.13696289 220.26074219 C163.28149921 217.223732 163.32301623 214.19152916 163.34008789 211.15136719 C163.35067734 209.89045258 163.35067734 209.89045258 163.36148071 208.60406494 C163.6218403 183.27714711 163.6218403 183.27714711 160.13696289 158.26074219 C159.93828613 157.2992627 159.73960937 156.3377832 159.53491211 155.34716797 C155.10032584 134.16412931 148.36505163 114.33591191 138.13696289 95.26074219 C137.67032227 94.32746094 137.20368164 93.39417969 136.72290039 92.43261719 C130.09741338 79.49160748 121.08815073 67.79273865 111.13696289 57.26074219 C109.98632263 55.91065761 108.84029329 54.55662629 107.69946289 53.19824219 C96.81803213 40.80481308 82.85474745 30.60879663 68.13696289 23.26074219 C67.23075195 22.7721875 66.32454102 22.28363281 65.39086914 21.78027344 C46.30056715 11.70411676 26.39031187 7.07286402 4.87255859 7.07543945 C2.838734 7.0732575 0.80545741 7.05505236 -1.22827148 7.03613281 C-12.87643101 7.01906174 -23.54916893 8.55371875 -34.67553711 11.94824219 Z " fill="#F48316" transform="translate(254.863037109375,55.7392578125)"/>
<path d="M0 0 C1.18223145 -0.00945648 2.36446289 -0.01891296 3.58251953 -0.02865601 C5.49653564 -0.01954697 5.49653564 -0.01954697 7.44921875 -0.01025391 C8.76905762 -0.01312408 10.08889648 -0.01599426 11.44873047 -0.01895142 C14.24636346 -0.02337341 17.04370907 -0.01695633 19.84130859 -0.00292969 C23.39382788 0.01402985 26.94566047 0.00440583 30.49815369 -0.01364708 C33.2557674 -0.02460278 36.01322449 -0.02098312 38.77084351 -0.0132637 C40.70701549 -0.01033661 42.643194 -0.01932318 44.5793457 -0.02865601 C57.99209607 0.07638981 71.20340064 2.6545485 81.38671875 11.95068359 C91.2345601 22.5161814 93.74552204 35.26741555 93.3828125 49.19287109 C92.67447068 64.43807871 87.9564463 77.50443399 77.13671875 88.38818359 C78.0520429 90.75277099 78.99174176 93.08634626 80.08984375 95.37255859 C88.23587221 112.51569311 86.0544184 131.86071232 79.88671875 149.32568359 C75.19522778 160.63552791 66.02492683 170.68486829 54.99443054 176.21154785 C43.12501769 181.09866608 30.75609253 181.99870326 18.0859375 181.91943359 C16.52797709 181.92213865 14.97001834 181.9260294 13.4120636 181.93103027 C10.18770871 181.93685513 6.9638037 181.92857836 3.73950195 181.90966797 C-0.38862308 181.88662995 -4.51572173 181.90019961 -8.64381123 181.92395782 C-11.8428883 181.93839542 -15.04172033 181.93382364 -18.24080467 181.92344666 C-19.76422436 181.92078656 -21.28766658 181.92402383 -22.81105995 181.93336487 C-24.92843807 181.94352522 -27.04412505 181.92805195 -29.16137695 181.90576172 C-30.3625264 181.90257935 -31.56367584 181.89939697 -32.80122375 181.89611816 C-35.86328125 181.38818359 -35.86328125 181.38818359 -38.21965027 179.79333496 C-41.74330343 174.63711723 -40.9217387 169.28438212 -39.87082481 163.45877838 C-39.70196581 162.58631218 -39.5331068 161.71384598 -39.35913086 160.81494141 C-39.18651545 159.87443687 -39.01390003 158.93393234 -38.83605385 157.96492767 C-38.26005943 154.83844819 -37.66889565 151.71502669 -37.078125 148.59130859 C-36.66552154 146.36425996 -36.25416651 144.13697972 -35.84397888 141.90948486 C-34.97164162 137.17548103 -34.09459956 132.44238125 -33.21502686 127.7097168 C-31.20159286 116.84229438 -29.2690409 105.96041861 -27.32991409 95.07954407 C-26.24442836 88.99545427 -25.15229292 82.91255884 -24.06054688 76.82958984 C-22.72603776 69.39303353 -21.39277047 61.95626342 -20.06469727 54.51855469 C-18.96242518 48.34591012 -17.85584057 42.17405299 -16.74622917 36.00272369 C-16.33042768 33.68578201 -15.91618125 31.36856066 -15.50357246 29.05104828 C-14.93432451 25.85505278 -14.35955404 22.66009721 -13.78344727 19.46533203 C-13.61776245 18.52752396 -13.45207764 17.58971588 -13.28137207 16.62348938 C-11.11686389 4.70748665 -11.11686389 4.70748665 -8.10473633 1.53744507 C-5.24942599 0.07344153 -3.20655306 0.00736903 0 0 Z M-3.86328125 8.38818359 C-5.28255002 13.12502901 -6.38772383 17.78965029 -7.2644043 22.6640625 C-7.39000229 23.35667679 -7.51560028 24.04929108 -7.64500427 24.76289368 C-8.05827348 27.04626754 -8.46658564 29.33049935 -8.875 31.61474609 C-9.16890231 33.24252598 -9.46316557 34.87024073 -9.75776672 36.49789429 C-10.5356858 40.80020001 -11.30963349 45.10320976 -12.0824585 49.40643311 C-13.4462563 56.99752399 -14.81621643 64.5875044 -16.1875 72.17724609 C-16.33834927 73.01278833 -16.48919853 73.84833057 -16.64461899 74.70919228 C-19.57821527 90.94656477 -22.63509477 107.15944633 -25.71948147 123.36874294 C-27.31984102 131.78149543 -28.90291252 140.1972123 -30.43701172 148.62231445 C-30.7321223 150.23426727 -31.03086841 151.84555716 -31.33251953 153.45629883 C-31.78819852 155.89184881 -32.23321209 158.3291283 -32.67578125 160.76708984 C-32.81209961 161.48345108 -32.94841797 162.19981232 -33.08886719 162.93788147 C-33.69656467 166.35324016 -34.10573235 169.0913565 -32.86328125 172.38818359 C-32.53328125 172.05818359 -32.20328125 171.72818359 -31.86328125 171.38818359 C-29.75855068 171.28002059 -27.65020172 171.24188209 -25.54272461 171.23046875 C-24.88243256 171.22538803 -24.2221405 171.22030731 -23.5418396 171.21507263 C-22.10242491 171.20434512 -20.6629933 171.19573434 -19.22355461 171.1889534 C-16.94025315 171.17717972 -14.65714217 171.15772693 -12.37391663 171.13583374 C-5.87995829 171.07419563 0.61398531 171.02032989 7.1081543 170.98681641 C11.07764123 170.96577837 15.04678881 170.93039239 19.01608086 170.88605881 C20.52498798 170.87195894 22.03395524 170.86319003 23.54292488 170.86000443 C31.26791815 170.84198412 38.06802308 170.81242465 45.13671875 167.38818359 C52.03859766 164.41323579 52.03859766 164.41323579 55.07421875 163.63818359 C61.92721122 160.84104381 66.50327132 155.55325116 70.03125 149.18505859 C71.13671875 147.38818359 71.13671875 147.38818359 72.671875 145.95068359 C74.53355824 143.96488813 75.02426688 142.24762868 75.76171875 139.63818359 C76.00148438 138.81833984 76.24125 137.99849609 76.48828125 137.15380859 C79.34662429 124.96280335 80.21865117 110.67788689 74.13671875 99.38818359 C71.56880907 95.37205331 68.71182921 91.56605956 65.13671875 88.38818359 C64.47671875 88.38818359 63.81671875 88.38818359 63.13671875 88.38818359 C65.76171875 83.51318359 65.76171875 83.51318359 69.13671875 82.38818359 C69.13671875 81.72818359 69.13671875 81.06818359 69.13671875 80.38818359 C69.73484375 80.12263672 70.33296875 79.85708984 70.94921875 79.58349609 C76.88502679 76.34000098 80.84231909 69.59655915 83.13671875 63.38818359 C83.13671875 62.39818359 83.13671875 61.40818359 83.13671875 60.38818359 C83.79671875 60.38818359 84.45671875 60.38818359 85.13671875 60.38818359 C87.98134531 50.34537771 87.73981557 36.12277193 83.46875 26.61474609 C77.8914802 17.29203705 70.51056233 12.22069393 60.13671875 9.38818359 C56.41124529 8.51494933 52.97689947 8.26647014 49.15307617 8.2746582 C47.97222946 8.27473373 46.79138275 8.27480927 45.57475281 8.27488708 C44.31000626 8.28004837 43.0452597 8.28520966 41.7421875 8.29052734 C40.43969559 8.29194229 39.13720367 8.29335724 37.79524231 8.29481506 C34.34455421 8.29862004 30.89390867 8.30843295 27.4432373 8.31951904 C23.91724218 8.3297767 20.39124014 8.33432199 16.86523438 8.33935547 C9.95571176 8.35005715 3.0462173 8.36710916 -3.86328125 8.38818359 Z " fill="#7353D4" transform="translate(231.86328125,164.61181640625)"/>
<path d="M0 0 C7.16641858 -0.48585889 7.16641858 -0.48585889 10.734375 1.59375 C14.09032618 5.1580016 13.62654269 8.00638387 13.51660156 12.71630859 C13.2903452 17.80221108 12.43552321 22.68062689 11.25 27.625 C11.01518921 28.61838379 11.01518921 28.61838379 10.77563477 29.63183594 C9.63509929 33.89696909 8.02593038 36.79711463 5 40 C1.02793243 42.25441673 -2.49677268 42.17659715 -7 42 C-6.38696934 33.20827108 -5.02646753 24.61219692 -3.5 15.9375 C-3.27181067 14.60747755 -3.04394421 13.27739966 -2.81640625 11.94726562 C-1.13188758 2.26377516 -1.13188758 2.26377516 0 0 Z " fill="#B72BE2" transform="translate(253,264)"/>
<path d="M0 0 C3.10606307 0.62812778 4.22427014 1.91612912 6.10546875 4.42578125 C7.71935171 13.57535391 6.11339315 24.77717081 1.04296875 32.61328125 C-2.77229722 36.18240102 -5.86869335 35.50684315 -10.89453125 35.42578125 C-11.04655301 30.32313768 -10.50374952 25.64920914 -9.45703125 20.67578125 C-8.29841188 14.90752155 -7.47366633 9.24958223 -7.10546875 3.3671875 C-6.65198673 -0.80652662 -3.59611654 0.19566113 0 0 Z " fill="#B32DE1" transform="translate(269.89453125,201.57421875)"/>
<path d="M0 0 C0.495 0.99 0.495 0.99 1 2 C-3.72086393 11.95342989 -11.14526848 19.07561754 -21.39656067 23.09074402 C-31.90753983 26.76172285 -42.12255767 27.41561573 -53.14453125 27.29296875 C-54.6505236 27.28735673 -56.15652152 27.28309425 -57.66252136 27.28010559 C-61.58012664 27.26878291 -65.49738535 27.23942825 -69.41485596 27.20599365 C-73.43081986 27.17501748 -77.44684108 27.16154209 -81.46289062 27.14648438 C-89.30874983 27.11454302 -97.15432592 27.06350421 -105 27 C-104.01 25.515 -104.01 25.515 -103 24 C-100.19381714 23.62145996 -100.19381714 23.62145996 -96.56591797 23.61523438 C-95.90547989 23.6098616 -95.24504181 23.60448883 -94.56459045 23.59895325 C-93.12793786 23.58915886 -91.691226 23.58623612 -90.2545433 23.58930969 C-87.9751645 23.59378341 -85.69656409 23.57979775 -83.41726685 23.56091309 C-78.56985754 23.52407035 -73.72252865 23.51042892 -68.875 23.5 C-63.27705149 23.48789918 -57.67947954 23.46614961 -52.08169937 23.41999817 C-49.84605071 23.40649974 -47.61088655 23.41058761 -45.37521362 23.41540527 C-38.29424729 23.3879464 -32.43583475 23.12428583 -26 20 C-19.10762332 17.02914798 -19.10762332 17.02914798 -16 16.1875 C-8.32123069 13.14798715 -4.15438333 6.84788461 0 0 Z " fill="#858788" transform="translate(303,311)"/>
<path d="M0 0 C1.31052767 4.30422506 0.45785552 7.9370534 -0.4375 12.25 C-0.58509766 12.99507813 -0.73269531 13.74015625 -0.88476562 14.5078125 C-1.2488694 16.34007665 -1.62341409 18.17026053 -2 20 C6.59005561 19.96164018 15.17960194 19.9018488 23.76930237 19.81609726 C27.75962762 19.77690505 31.74974152 19.74458049 35.74023438 19.72900391 C39.60496701 19.71364793 43.4691174 19.67887837 47.33358765 19.63169098 C48.79400516 19.61706921 50.25450588 19.60897029 51.71499634 19.60811615 C67.68647242 19.58941487 83.74285193 17.14286189 96 6 C96.66 5.01 97.32 4.02 98 3 C98.66 3 99.32 3 100 3 C99.19386185 8.73253792 94.33135723 11.66024125 90 15 C78.47701088 22.53861567 64.22837364 23.16386486 50.8828125 23.1328125 C49.94557343 23.13376923 49.00833435 23.13472595 48.04269409 23.13571167 C46.06785006 23.13638788 44.09300374 23.13457288 42.11816406 23.13037109 C39.16726387 23.12507584 36.21652016 23.13030376 33.265625 23.13671875 C20.8145005 23.1406256 8.42828421 22.74791183 -4 22 C-4.02858156 17.25819778 -3.99533193 12.86720786 -3.125 8.1875 C-2.96257812 7.27355469 -2.80015625 6.35960937 -2.6328125 5.41796875 C-2 3 -2 3 0 0 Z " fill="#2977AF" transform="translate(200,318)"/>
<path d="M0 0 C1.384151 -0.00956978 1.384151 -0.00956978 2.79626465 -0.01933289 C3.80129028 -0.02044571 4.80631592 -0.02155853 5.84179688 -0.02270508 C6.88388306 -0.02603348 7.92596924 -0.02936188 8.99963379 -0.03279114 C11.21898965 -0.03786708 13.43835318 -0.04019926 15.65771484 -0.04003906 C18.99134756 -0.04219164 22.32463055 -0.06024427 25.65820312 -0.0793457 C65.50947646 -0.18617108 65.50947646 -0.18617108 77.76757812 11.21557617 C81.75515029 15.50721157 85.00161952 20.18337192 85.56054688 26.14526367 C84.90054688 26.47526367 84.24054688 26.80526367 83.56054688 27.14526367 C83.21443359 26.27514648 83.21443359 26.27514648 82.86132812 25.38745117 C79.63761089 17.66582018 76.07999596 12.33880258 68.56054688 8.14526367 C61.95741124 5.52738335 55.70329116 4.01647835 48.5769043 4.03173828 C47.39605759 4.03181381 46.21521088 4.03188934 44.99858093 4.03196716 C43.73383438 4.03712845 42.46908783 4.04228973 41.16601562 4.04760742 C39.86352371 4.04902237 38.5610318 4.05043732 37.21907043 4.05189514 C33.76838233 4.05570012 30.3177368 4.06551303 26.86706543 4.07659912 C23.34107031 4.08685678 19.81506826 4.09140207 16.2890625 4.09643555 C9.37953988 4.10713723 2.47004543 4.12418924 -4.43945312 4.14526367 C-4.6328125 5.34924805 -4.82617188 6.55323242 -5.02539062 7.79370117 C-5.28798917 9.36929244 -5.55103314 10.94480953 -5.81445312 12.52026367 C-5.94078125 13.31432617 -6.06710938 14.10838867 -6.19726562 14.92651367 C-6.32617188 15.68706055 -6.45507812 16.44760742 -6.58789062 17.23120117 C-6.70310059 17.93293457 -6.81831055 18.63466797 -6.93701172 19.35766602 C-7.43945312 21.14526367 -7.43945312 21.14526367 -9.43945312 23.14526367 C-9.89548645 15.51092806 -9.03690015 8.37760471 -6.43945312 1.14526367 C-4.07508427 -0.03692076 -2.63706307 0.01238311 0 0 Z " fill="#377CBF" transform="translate(232.439453125,169.854736328125)"/>
<path d="M0 0 C7.16641858 -0.48585889 7.16641858 -0.48585889 10.734375 1.59375 C14.09032618 5.1580016 13.62654269 8.00638387 13.51660156 12.71630859 C13.2903452 17.80221108 12.43552321 22.68062689 11.25 27.625 C11.01518921 28.61838379 11.01518921 28.61838379 10.77563477 29.63183594 C9.63509929 33.89696909 8.02593038 36.79711463 5 40 C1.02793243 42.25441673 -2.49677268 42.17659715 -7 42 C-6.38696934 33.20827108 -5.02646753 24.61219692 -3.5 15.9375 C-3.27181067 14.60747755 -3.04394421 13.27739966 -2.81640625 11.94726562 C-1.13188758 2.26377516 -1.13188758 2.26377516 0 0 Z M1 5 C0.80664062 6.29035156 0.61328125 7.58070313 0.4140625 8.91015625 C0.15127805 10.62764035 -0.11175604 12.34508627 -0.375 14.0625 C-0.56449219 15.33383789 -0.56449219 15.33383789 -0.7578125 16.63085938 C-1.51901568 21.55964999 -2.62182497 26.20014903 -4 31 C-4.23631608 33.36005966 -4.23631608 33.36005966 -4.125 35.4375 C-4.08375 36.613125 -4.0425 37.78875 -4 39 C0.48375352 38.82416653 2.47941761 38.4858769 5.8125 35.375 C10.18536946 29.97234217 10.36341843 22.88624198 10.375 16.25 C10.39949219 15.49589844 10.42398437 14.74179687 10.44921875 13.96484375 C10.47498602 9.60808515 10.47498602 9.60808515 8.2890625 5.984375 C5.67841353 4.86170684 3.81400016 4.76549999 1 5 Z " fill="#A11BA0" transform="translate(253,264)"/>
<path d="M0 0 C3.10606307 0.62812778 4.22427014 1.91612912 6.10546875 4.42578125 C7.71935171 13.57535391 6.11339315 24.77717081 1.04296875 32.61328125 C-2.77229722 36.18240102 -5.86869335 35.50684315 -10.89453125 35.42578125 C-11.04655301 30.32313768 -10.50374952 25.64920914 -9.45703125 20.67578125 C-8.29841188 14.90752155 -7.47366633 9.24958223 -7.10546875 3.3671875 C-6.65198673 -0.80652662 -3.59611654 0.19566113 0 0 Z M-3.89453125 5.42578125 C-5.9832618 7.5145118 -5.90306314 11.49421109 -6.39453125 14.36328125 C-6.52835205 15.13148193 -6.66217285 15.89968262 -6.80004883 16.69116211 C-7.74818163 22.25756254 -8.44761437 27.79462852 -8.89453125 33.42578125 C-4.27354094 33.07400297 -4.27354094 33.07400297 -0.08203125 31.30078125 C3.12580305 26.23577972 3.40050068 20.45344054 3.41796875 14.61328125 C3.43472656 13.30746094 3.45148438 12.00164062 3.46875 10.65625 C3.34886719 9.59019531 3.22898437 8.52414063 3.10546875 7.42578125 C0.15169377 5.05598112 0.15169377 5.05598112 -3.89453125 5.42578125 Z " fill="#9D27A5" transform="translate(269.89453125,201.57421875)"/>
<path d="M0 0 C0.33 0 0.66 0 1 0 C1.26062483 6.78282448 0.26804673 12.99403515 -1.01171875 19.64453125 C-1.22182083 20.76776291 -1.43192291 21.89099457 -1.64839172 23.04826355 C-2.32134095 26.63765173 -3.00416948 30.22507524 -3.6875 33.8125 C-4.12762319 36.14896242 -4.56708176 38.48555014 -5.00585938 40.82226562 C-5.88400256 45.49491494 -6.76574678 50.16686376 -7.64990234 54.83837891 C-9.80030679 66.21929859 -11.89895852 77.60988236 -14 89 C-14.66 89 -15.32 89 -16 89 C-15.4016786 79.23250372 -13.63839036 69.72422423 -11.875 60.1171875 C-11.56463301 58.40900172 -11.25457974 56.70075892 -10.94482422 54.99246216 C-10.29898747 51.43678637 -9.64978239 47.88174761 -8.99804688 44.32714844 C-8.16140428 39.76281424 -7.33273229 35.19707522 -6.50643921 30.63085747 C-5.86941447 27.11488581 -5.22856039 23.59962086 -4.58648682 20.08456802 C-4.27915799 18.39978488 -3.97296238 16.71479463 -3.66790771 15.02959824 C-3.24339819 12.68811478 -2.81382662 10.34761777 -2.3828125 8.00732422 C-2.25706848 7.30819412 -2.13132446 6.60906403 -2.00177002 5.88874817 C-1.11431995 1.11431995 -1.11431995 1.11431995 0 0 Z " fill="#AB1DA6" transform="translate(219,210)"/>
<path d="M0 0 C0.99 0 1.98 0 3 0 C1.59618624 4.25721782 -0.44066373 6.87693844 -3.5 10.125 C-5.91448108 12.70410479 -8.03734407 15.05601611 -10 18 C-9.52949219 18.60585937 -9.05898438 19.21171875 -8.57421875 19.8359375 C-7.95160156 20.67382812 -7.32898438 21.51171875 -6.6875 22.375 C-6.07261719 23.18710937 -5.45773437 23.99921875 -4.82421875 24.8359375 C-0.32623562 32.63757848 0.43018056 40.26404836 0.1875 49.125 C0.16719727 50.55972656 0.16719727 50.55972656 0.14648438 52.0234375 C0.11159222 54.3495811 0.06258339 56.6744653 0 59 C-0.66 58.67 -1.32 58.34 -2 58 C-2.02578125 56.75605469 -2.0515625 55.51210938 -2.078125 54.23046875 C-2.47006915 41.19144367 -3.63699536 29.92478492 -13 20 C-13.721875 19.4740625 -14.44375 18.948125 -15.1875 18.40625 C-16.0846875 17.71015625 -16.0846875 17.71015625 -17 17 C-17 16.34 -17 15.68 -17 15 C-15.51333544 14.08766058 -13.98309443 13.24600021 -12.4375 12.4375 C-7.47672431 9.60578243 -4.63481425 6.46608706 -1.47265625 1.7578125 C-0.98667969 1.17773438 -0.50070312 0.59765625 0 0 Z " fill="#9F18A1" transform="translate(312,236)"/>
<path d="M0 0 C0.66 0 1.32 0 2 0 C5.10386551 10.82154312 4.54169716 26.7290977 0 37 C-0.66 37.99 -1.32 38.98 -2 40 C-2.99 40 -3.98 40 -5 40 C-5.41378906 40.88171875 -5.41378906 40.88171875 -5.8359375 41.78125 C-9.39252943 48.56025743 -14.0720435 52.01381185 -21 55 C-20.34 53.68 -19.68 52.36 -19 51 C-18.01 51 -17.02 51 -16 51 C-16 50.34 -16 49.68 -16 49 C-14.80657548 47.95760439 -13.56863796 46.96590275 -12.3125 46 C-6.83768005 41.37940727 -4.23411861 35.70235582 -2 29 C-1.34 29 -0.68 29 0 29 C0 19.43 0 9.86 0 0 Z " fill="#84299F" transform="translate(317,196)"/>
<path d="M0 0 C0.495 0.99 0.495 0.99 1 2 C-3.8514278 12.22870966 -11.37968827 19.04445207 -21.7890625 23.28125 C-25.26728316 24.41197898 -28.33613855 24.87144346 -32 25 C-32.66 24.34 -33.32 23.68 -34 23 C-32.824375 22.566875 -31.64875 22.13375 -30.4375 21.6875 C-27.71067531 20.6679465 -25.05133804 19.59109398 -22.375 18.4375 C-19 17 -19 17 -16 16.1875 C-8.32123069 13.14798715 -4.15438333 6.84788461 0 0 Z " fill="#979899" transform="translate(303,311)"/>
<path d="M0 0 C0.66 0 1.32 0 2 0 C1.19510892 5.72366988 -3.66384745 8.67607233 -8 12 C-10.58442271 13.59543785 -13.18639839 14.8638522 -16 16 C-17.0725 16.433125 -18.145 16.86625 -19.25 17.3125 C-22.02329979 18.00582495 -23.36647003 18.01289614 -26 17 C-26 16.34 -26 15.68 -26 15 C-24.87464844 14.67128906 -24.87464844 14.67128906 -23.7265625 14.3359375 C-14.42766996 11.45492042 -5.78479705 8.19512915 0 0 Z " fill="#3975B2" transform="translate(298,321)"/>
<path d="M0 0 C0.66 0.33 1.32 0.66 2 1 C1.16684145 5.93012351 0.33058608 10.85970787 -0.50854492 15.78881836 C-0.79357744 17.46575696 -1.07776283 19.14283977 -1.36108398 20.82006836 C-1.76844273 23.23069043 -2.17884403 25.64077763 -2.58984375 28.05078125 C-2.71592514 28.80087967 -2.84200653 29.55097809 -2.97190857 30.32380676 C-3.48382124 33.31087654 -4.03987378 36.11962134 -5 39 C-5.66 39 -6.32 39 -7 39 C-6.76612654 36.33782343 -6.52636831 33.67643532 -6.27734375 31.015625 C-6.10980469 29.19393269 -5.95293664 27.3711534 -5.81640625 25.546875 C-5.42943144 21.02953636 -4.49208571 17.3760556 -2.765625 13.1953125 C-1.27960424 8.93437543 -0.69484452 4.44700495 0 0 Z " fill="#CECCCE" transform="translate(251,265)"/>
<path d="M0 0 C0.33 0 0.66 0 1 0 C1 4.29 1 8.58 1 13 C4.9458331 12.16530454 7.42357496 11.57642504 10.3125 8.6875 C11.89419792 6.16849961 13.03709163 3.80848275 14 1 C14.66 1 15.32 1 16 1 C14.41667669 6.90849918 12.94442936 11.04445651 8 15 C4.52674819 16.1577506 1.63932552 16.06866652 -2 16 C-1.85764543 14.27054347 -1.71095618 12.54144346 -1.5625 10.8125 C-1.48128906 9.84957031 -1.40007812 8.88664062 -1.31640625 7.89453125 C-1.02333849 5.21350398 -0.57296246 2.6337014 0 0 Z " fill="#9048BC" transform="translate(248,290)"/>
<path d="M0 0 C9.48623578 0.94862358 16.05718183 5.75842024 22 13 C26.28027292 19.47317988 26.28027292 19.47317988 25.58984375 23.234375 C25.39519531 23.81703125 25.20054687 24.3996875 25 25 C23.44107761 22.66161642 22.45790441 20.7801505 21.375 18.25 C17.79475538 11.11573966 12.3945373 7.27478202 5 4.5625 C3.3392178 4.02319709 1.67436195 3.49553727 0 3 C0 2.01 0 1.02 0 0 Z " fill="#447CBE" transform="translate(292,172)"/>
<path d="M0 0 C0.33 0 0.66 0 1 0 C1.8947055 27.07312584 1.8947055 27.07312584 -4 36 C-5.485 36.495 -5.485 36.495 -7 37 C-6.74034932 35.31074322 -6.46663334 33.62364695 -6.1875 31.9375 C-5.96126953 30.52791016 -5.96126953 30.52791016 -5.73046875 29.08984375 C-5 26 -5 26 -3.5 22.75 C-1.51324363 18.32978615 -1.20917211 13.84803962 -0.8125 9.0625 C-0.73064453 8.18787109 -0.64878906 7.31324219 -0.56445312 6.41210938 C-0.36598634 4.27567277 -0.18154346 2.13794116 0 0 Z " fill="#C7C1C9" transform="translate(309,275)"/>
<path d="M0 0 C0.66 0 1.32 0 2 0 C1.58897717 11.26202546 -0.63163268 22.01400147 -3 33 C-3.66 33 -4.32 33 -5 33 C-4.43779003 25.32897817 -3.37685564 17.86530258 -1.9375 10.3125 C-1.75123047 9.31283203 -1.56496094 8.31316406 -1.37304688 7.28320312 C-0.91986013 4.85458699 -0.46213408 2.42692649 0 0 Z " fill="#A31AA6" transform="translate(208,266)"/>
<path d="M0 0 C2 2 2 2 2.296875 5.15625 C1.97445031 9.3308013 0.88053178 12.69803887 -0.75 16.5 C-1.00265625 17.12519531 -1.2553125 17.75039063 -1.515625 18.39453125 C-3.346188 22.81534089 -5.56082702 26.88522124 -8 31 C-9.13671875 29.234375 -9.13671875 29.234375 -10 27 C-9.20703125 25.140625 -9.20703125 25.140625 -7.8125 23.25 C-2.88138512 15.9739256 -1.3466484 8.61854978 0 0 Z " fill="#6258A5" transform="translate(309,292)"/>
<path d="M0 0 C0.99 0 1.98 0 3 0 C0.57496836 8.00260442 -4.95319018 12.20556395 -12 16 C-12.66 16.99 -13.32 17.98 -14 19 C-14.99 18.34 -15.98 17.68 -17 17 C-17 16.34 -17 15.68 -17 15 C-15.51333544 14.08766058 -13.98309443 13.24600021 -12.4375 12.4375 C-7.47672431 9.60578243 -4.63481425 6.46608706 -1.47265625 1.7578125 C-0.98667969 1.17773438 -0.50070312 0.59765625 0 0 Z " fill="#A2139A" transform="translate(312,236)"/>
<path d="M0 0 C0.33 0 0.66 0 1 0 C2.05625685 7.52105779 2.72953706 14.13591039 -1 21 C-3.25098556 23.6368688 -4.62192006 24.84887227 -8.1015625 25.23046875 C-10.06913183 25.2478501 -12.03686039 25.13309421 -14 25 C-13.67 23.68 -13.34 22.36 -13 21 C-12.67 21.33 -12.34 21.66 -12 22 C-8.55107891 21.98407238 -8.55107891 21.98407238 -5 21 C-1.68487747 16.9168349 -1.30441326 12.73750857 -0.8125 7.6875 C-0.73064453 6.94693359 -0.64878906 6.20636719 -0.56445312 5.44335938 C-0.36557412 3.63005077 -0.18130173 1.81515031 0 0 Z " fill="#A21DAC" transform="translate(273,212)"/>
<path d="M0 0 C0.33 0 0.66 0 1 0 C1.30358452 7.60437058 0.40531527 14.66163649 -1 22.125 C-1.28617187 23.7028125 -1.28617187 23.7028125 -1.578125 25.3125 C-2.04431283 27.87653309 -2.51837947 30.43882915 -3 33 C-1.02 33 0.96 33 3 33 C3 33.33 3 33.66 3 34 C0.69 34 -1.62 34 -4 34 C-4.31783615 25.38310888 -4.1250344 17.9541295 -1.734375 9.609375 C-0.83340915 6.40807081 -0.37486292 3.2987937 0 0 Z " fill="#CDC2CD" transform="translate(262,204)"/>
<path d="M0 0 C7.13166821 -0.48350293 7.13166821 -0.48350293 10.75 1.53125 C13.31159209 4.34188576 13.53048117 5.9332382 13.43945312 9.68359375 C13.39755859 10.36550781 13.35566406 11.04742187 13.3125 11.75 C13.27866211 12.79607422 13.27866211 12.79607422 13.24414062 13.86328125 C13.18547048 15.57644935 13.09579256 17.28850623 13 19 C12.67 19 12.34 19 12 19 C11.97421875 18.25234375 11.9484375 17.5046875 11.921875 16.734375 C11.63837134 10.75937925 11.63837134 10.75937925 9.4375 5.3125 C5.83481974 3.37259524 3.05961652 3.7293589 -1 4 C-0.67 2.68 -0.34 1.36 0 0 Z " fill="#A198A1" transform="translate(253,264)"/>
<path d="M0 0 C0.92075222 2.5090498 1.09121531 3.72065313 0.25 6.296875 C-4.47951197 15.57854225 -9.26434385 21.90077636 -19 26 C-18.34 24.68 -17.68 23.36 -17 22 C-16.01 22 -15.02 22 -14 22 C-14 21.34 -14 20.68 -14 20 C-12.80657548 18.95760439 -11.56863796 17.96590275 -10.3125 17 C-4.83768005 12.37940727 -2.23411861 6.70235582 0 0 Z " fill="#988F97" transform="translate(315,225)"/>
<path d="M0 0 C0.33 0 0.66 0 1 0 C1.02908357 3.41664873 1.04682691 6.8332655 1.0625 10.25 C1.07087891 11.21808594 1.07925781 12.18617188 1.08789062 13.18359375 C1.09111328 14.11816406 1.09433594 15.05273438 1.09765625 16.015625 C1.10289307 16.87446289 1.10812988 17.73330078 1.11352539 18.61816406 C1.00539986 20.88670744 0.63582423 22.82631715 0 25 C-0.66 25 -1.32 25 -2 25 C-2.33 26.98 -2.66 28.96 -3 31 C-4.52509921 27.02457474 -3.48648984 23.44679555 -2.625 19.4375 C-1.31473852 12.96970054 -0.40526588 6.59605158 0 0 Z " fill="#D7D4D8" transform="translate(317,200)"/>
<path d="M0 0 C3.13607538 0.63419706 4.23418164 1.86265971 6.10546875 4.42578125 C6.49609375 7.66015625 6.49609375 7.66015625 6.35546875 11.17578125 C6.319375 12.34625 6.28328125 13.51671875 6.24609375 14.72265625 C6.17648437 16.06070313 6.17648437 16.06070313 6.10546875 17.42578125 C5.77546875 17.42578125 5.44546875 17.42578125 5.10546875 17.42578125 C5.06808594 16.73871094 5.03070313 16.05164063 4.9921875 15.34375 C4.92644531 14.44269531 4.86070312 13.54164063 4.79296875 12.61328125 C4.73496094 11.71996094 4.67695313 10.82664063 4.6171875 9.90625 C4.02945929 7.05733847 3.44423787 6.11489228 1.10546875 4.42578125 C-2.50476224 3.69536272 -2.50476224 3.69536272 -5.89453125 3.42578125 C-5.89453125 5.07578125 -5.89453125 6.72578125 -5.89453125 8.42578125 C-6.22453125 8.42578125 -6.55453125 8.42578125 -6.89453125 8.42578125 C-6.93694848 6.0928335 -6.93546062 3.75875558 -6.89453125 1.42578125 C-5.04421135 -0.42453865 -2.46981043 0.13437993 0 0 Z " fill="#9D96A0" transform="translate(269.89453125,201.57421875)"/>
<path d="M0 0 C0.66 0.66 1.32 1.32 2 2 C1.86941774 4.95293974 1.62211331 7.76408483 1.25 10.6875 C1.11851562 11.87375977 1.11851562 11.87375977 0.984375 13.08398438 C0.41092444 17.90654428 -0.53704962 22.3693901 -2 27 C-2.33 27 -2.66 27 -3 27 C-3.5338079 17.66824711 -1.91281635 9.07449185 0 0 Z " fill="#A02AA6" transform="translate(252,268)"/>
<path d="M0 0 C0 3 0 3 -1.74414062 5.0847168 C-2.54013672 5.86500244 -3.33613281 6.64528809 -4.15625 7.44921875 C-5.01347656 8.29677734 -5.87070313 9.14433594 -6.75390625 10.01757812 C-7.66011719 10.89865234 -8.56632813 11.77972656 -9.5 12.6875 C-10.40621094 13.58017578 -11.31242188 14.47285156 -12.24609375 15.39257812 C-14.49085168 17.60189251 -16.74229998 19.80392533 -19 22 C-19.66 21.67 -20.32 21.34 -21 21 C-13.94975689 12.63371151 -13.94975689 12.63371151 -11 10 C-10.34 10 -9.68 10 -9 10 C-8.67 9.01 -8.34 8.02 -8 7 C-7.34 7 -6.68 7 -6 7 C-6 6.34 -6 5.68 -6 5 C-4.04072937 3.2856382 -2.04119788 1.61594832 0 0 Z " fill="#236073" transform="translate(145,61)"/>
<path d="M0 0 C0 0.33 0 0.66 0 1 C4.29 1.33 8.58 1.66 13 2 C13 2.33 13 2.66 13 3 C9.54168516 3.02949232 6.08340346 3.0469616 2.625 3.0625 C1.65949219 3.07087891 0.69398438 3.07925781 -0.30078125 3.08789062 C-6.59824289 3.10902305 -12.74839863 2.76107198 -19 2 C-19 1.67 -19 1.34 -19 1 C-12.62641289 0.03794912 -6.44070471 -0.10655578 0 0 Z " fill="#337BBD" transform="translate(248,338)"/>
<path d="M0 0 C0.33 0 0.66 0 1 0 C1.24919576 7.84966639 0.75922122 14.97120402 -3 22 C-3.33 22 -3.66 22 -4 22 C-3.51298949 14.40935336 -2.00236413 7.32940833 0 0 Z " fill="#9426DE" transform="translate(258,275)"/>
<path d="M0 0 C3.67887806 -0.28299062 6.17757904 -0.46392977 9.4375 1.375 C11.84368898 5.41739748 11.31542629 9.40879515 11 14 C10.67 14 10.34 14 10 14 C9.34 10.7 8.68 7.4 8 4 C5.03 3.505 5.03 3.505 2 3 C1.67 4.65 1.34 6.3 1 8 C0.34 8 -0.32 8 -1 8 C-0.67 5.36 -0.34 2.72 0 0 Z " fill="#7D38A1" transform="translate(264,205)"/>
<path d="M0 0 C0.33 0.66 0.66 1.32 1 2 C-2.71458045 9.83179024 -7.84710448 15.24762271 -15 20 C-15 19.01 -15 18.02 -15 17 C-13.2421875 15.2734375 -13.2421875 15.2734375 -10.875 13.375 C-6.23746528 9.4334618 -3.07985769 5.21764126 0 0 Z " fill="#878A8E" transform="translate(303,311)"/>
<path d="M0 0 C0.99 0 1.98 0 3 0 C2.57626597 2.75276857 2.13666675 5.50136762 1.6875 8.25 C1.56955078 9.02730469 1.45160156 9.80460937 1.33007812 10.60546875 C0.63174001 14.79549744 0.04698339 17.8249921 -3 21 C-2.68981396 18.4372008 -2.37693109 15.8747789 -2.0625 13.3125 C-1.97548828 12.59126953 -1.88847656 11.87003906 -1.79882812 11.12695312 C-1.33686195 7.37989416 -0.80832321 3.69207089 0 0 Z " fill="#6552AC" transform="translate(202,299)"/>
<path d="M0 0 C3.33300679 0.24688939 4.19656928 1.20615802 6.5625 3.6875 C8.83349679 6.61940607 10.64155024 9.52840617 12 13 C11.6875 15.375 11.6875 15.375 11 17 C9.46352175 14.69528263 8.33773241 12.66906524 7.1875 10.1875 C5.25936277 6.25118965 2.92614107 3.25126786 0 0 Z " fill="#4F67B3" transform="translate(306,180)"/>
<path d="M0 0 C0.33 0 0.66 0 1 0 C1.24794402 6.5705166 0.32388229 12.56971459 -1 19 C-3 17 -3 17 -3.046875 14.609375 C-2.51572906 9.49360097 -1.95056519 4.81139414 0 0 Z " fill="#902FAF" transform="translate(219,210)"/>
<path d="M0 0 C0.66 0.66 1.32 1.32 2 2 C1.79296875 5.046875 1.79296875 5.046875 1.1875 8.75 C0.99542969 9.96171875 0.80335938 11.1734375 0.60546875 12.421875 C0.40566406 13.60265625 0.20585937 14.7834375 0 16 C-0.18949219 17.13953125 -0.37898437 18.2790625 -0.57421875 19.453125 C-0.78498047 20.71382812 -0.78498047 20.71382812 -1 22 C-3.63357331 18.04964004 -2.78386882 15.42993756 -2 11 C-1.82855469 10.0203125 -1.65710938 9.040625 -1.48046875 8.03125 C-1.00045079 5.35143753 -0.50646518 2.6749229 0 0 Z " fill="#7A53B2" transform="translate(222,191)"/>
<path d="M0 0 C2 2 2 2 2.046875 4.1015625 C1.40585533 9.55022967 0.46894783 14.71178781 -1 20 C-1.33 20 -1.66 20 -2 20 C-2.26618595 13.04958914 -1.6120509 6.76485645 0 0 Z " fill="#4E71BA" transform="translate(225,173)"/>
<path d="M0 0 C0.33 0 0.66 0 1 0 C1.02705729 1.77074917 1.04642195 3.54161711 1.0625 5.3125 C1.07410156 6.29863281 1.08570313 7.28476562 1.09765625 8.30078125 C1 11 1 11 0 14 C0.99 14 1.98 14 3 14 C3 14.66 3 15.32 3 16 C1.35 16 -0.3 16 -2 16 C-1.85764543 14.27054347 -1.71095618 12.54144346 -1.5625 10.8125 C-1.48128906 9.84957031 -1.40007812 8.88664062 -1.31640625 7.89453125 C-1.02333849 5.21350398 -0.57296246 2.6337014 0 0 Z " fill="#8845AA" transform="translate(248,290)"/>
<path d="M0 0 C0.66 0 1.32 0 2 0 C1.44449305 3.59905908 0.25112752 4.99909799 -2.5625 7.25 C-3.20316406 7.77078125 -3.84382813 8.2915625 -4.50390625 8.828125 C-4.99761719 9.21484375 -5.49132812 9.6015625 -6 10 C-6.66 9.34 -7.32 8.68 -8 8 C-6.50260417 6.79557292 -5.00520833 5.59114583 -3.5078125 4.38671875 C-1.74707893 2.87729455 -1.74707893 2.87729455 0 0 Z " fill="#4368AC" transform="translate(298,321)"/>
<path d="M0 0 C2 2 2 2 2.3125 5.25 C1.98188343 9.21739888 0.9941069 11.59340071 -1 15 C-2.20220203 11.46905698 -1.79532349 8.87101018 -1.0625 5.25 C-0.86785156 4.26515625 -0.67320312 3.2803125 -0.47265625 2.265625 C-0.31667969 1.51796875 -0.16070312 0.7703125 0 0 Z " fill="#823DA6" transform="translate(309,292)"/>
<path d="M0 0 C0.33 0 0.66 0 1 0 C0.85764543 1.72945653 0.71095618 3.45855654 0.5625 5.1875 C0.48128906 6.15042969 0.40007812 7.11335938 0.31640625 8.10546875 C0.02333849 10.78649602 -0.42703754 13.3662986 -1 16 C-1.66 16 -2.32 16 -3 16 C-2.88487847 14.27014758 -2.75744323 12.54111249 -2.625 10.8125 C-2.55539063 9.84957031 -2.48578125 8.88664062 -2.4140625 7.89453125 C-1.99784147 4.98491062 -1.20125904 2.67109226 0 0 Z " fill="#8E21A5" transform="translate(206,283)"/>
<path d="M0 0 C0.33 0.99 0.66 1.98 1 3 C0.21625 3.433125 -0.5675 3.86625 -1.375 4.3125 C-4.21698375 5.89220247 -4.21698375 5.89220247 -6 9 C-6.99 8.34 -7.98 7.68 -9 7 C-9 6.34 -9 5.68 -9 5 C-6.03 3.35 -3.06 1.7 0 0 Z " fill="#A4178E" transform="translate(304,246)"/>
<path d="M0 0 C0.66 0.33 1.32 0.66 2 1 C1.01 2.32 0.02 3.64 -1 5 C-0.34 6.32 0.32 7.64 1 9 C0.01 9 -0.98 9 -2 9 C-2.66 8.34 -3.32 7.68 -4 7 C-3.8125 4.5 -3.8125 4.5 -3 2 C-2.01 1.34 -1.02 0.68 0 0 Z " fill="#B516B6" transform="translate(303,249)"/>
<path d="M0 0 C1.13732426 3.40401948 0.83989957 5.77456664 0.0625 9.25 C-0.13214844 10.14203125 -0.32679688 11.0340625 -0.52734375 11.953125 C-0.68332031 12.62859375 -0.83929688 13.3040625 -1 14 C-1.66 14 -2.32 14 -3 14 C-2.88570603 12.22844346 -2.75816963 10.45773771 -2.625 8.6875 C-2.55539063 7.70136719 -2.48578125 6.71523438 -2.4140625 5.69921875 C-2 3 -2 3 0 0 Z " fill="#4566B1" transform="translate(200,318)"/>
<path d="M0 0 C1.37095624 3.69037278 0.60010967 5.70883835 -0.9375 9.25 C-1.31777344 10.14203125 -1.69804687 11.0340625 -2.08984375 11.953125 C-2.39019531 12.62859375 -2.69054687 13.3040625 -3 14 C-4.28934684 11.42130631 -3.82144674 10.34000765 -3.1875 7.5625 C-3.01605469 6.78003906 -2.84460938 5.99757813 -2.66796875 5.19140625 C-2 3 -2 3 0 0 Z " fill="#D7D7D7" transform="translate(306,298)"/>
<path d="M0 0 C0.33 0 0.66 0 1 0 C1.3690205 10.55808656 1.3690205 10.55808656 -1 15 C-1.33 15 -1.66 15 -2 15 C-2.19392201 9.47322267 -1.7479503 5.24385089 0 0 Z " fill="#E0E0E0" transform="translate(248,277)"/>
<path d="M0 0 C0.99 0.33 1.98 0.66 3 1 C-1.455 3.97 -1.455 3.97 -6 7 C-6 6.01 -6 5.02 -6 4 C-4.68 3.67 -3.36 3.34 -2 3 C-2 2.34 -2 1.68 -2 1 C-1.34 0.67 -0.68 0.34 0 0 Z " fill="#867B83" transform="translate(303,244)"/>
<path d="M0 0 C0.99 0 1.98 0 3 0 C2.71848913 1.31471568 2.42446661 2.62675767 2.125 3.9375 C1.96257812 4.66839844 1.80015625 5.39929688 1.6328125 6.15234375 C1 8 1 8 -1 9 C-0.67 6.03 -0.34 3.06 0 0 Z " fill="#8244B0" transform="translate(202,299)"/>
<path d="M0 0 C0.66 0 1.32 0 2 0 C1.34 2.64 0.68 5.28 0 8 C-0.99 8 -1.98 8 -3 8 C-1.125 2.25 -1.125 2.25 0 0 Z " fill="#9739B3" transform="translate(262,291)"/>
<path d="M0 0 C0 0.66 0 1.32 0 2 C-0.598125 2.268125 -1.19625 2.53625 -1.8125 2.8125 C-3.97224808 3.98493467 -5.35790256 5.19369282 -7 7 C-7 5.35 -7 3.7 -7 2 C-2.25 0 -2.25 0 0 0 Z " fill="#C1BFC0" transform="translate(301,245)"/>
<path d="M0 0 C0.66 0.33 1.32 0.66 2 1 C1.67 3.64 1.34 6.28 1 9 C-1 7 -1 7 -1.1875 3.9375 C-1 1 -1 1 0 0 Z " fill="#9E2AAE" transform="translate(217,220)"/>
<path d="M0 0 C0.66 0 1.32 0 2 0 C1.67 2.64 1.34 5.28 1 8 C0.34 8 -0.32 8 -1 8 C-1.04241723 5.66705225 -1.04092937 3.33297433 -1 1 C-0.67 0.67 -0.34 0.34 0 0 Z " fill="#942EAF" transform="translate(263,213)"/>
</svg>
